<?xml version="1.0" encoding="UTF-8"?>
<!-- Generated by Pixelmator Pro 4.3 -->
<svg viewBox="0 0 1024 1024" xmlns="http://www.w3.org/2000/svg">
    <g id="Group">
        <path id="Path" fill="#925a26" stroke="none" d="M 289.732086 966.874268 C 284.375763 967.356934 278.75531 966.090881 274.237061 963.321594 C 272.943542 962.526062 270.739075 960.609985 267.623688 957.573547 C 244.194412 934.721191 215.600113 906.609741 181.840836 873.239136 C 146.812317 838.61145 111.480156 803.801514 75.844337 768.809448 C 70.77346 763.82959 67.700569 760.261841 66.625671 758.105957 C 64.779503 754.395386 63.546703 750.481445 62.927277 746.363953 C 62.787594 745.453003 62.717751 741.365967 62.717751 734.102783 C 62.729897 656.563965 62.830101 545.198975 63.01836 400.007935 C 63.091236 345.251587 62.316948 292.900146 62.180302 239.54657 C 62.089214 205.787354 61.831108 168.71521 61.406013 128.330444 C 61.393864 126.684692 61.491024 124.319275 61.697506 121.234192 C 62.480911 109.792847 70.961723 101.06604 82.512398 100.25531 C 104.016548 98.737122 136.804169 96.28363 180.875244 92.894958 C 237.559738 88.54071 320.907349 82.240112 430.91803 73.993103 C 508.614777 68.175293 584.073608 62.694458 657.294678 57.550781 C 662.414185 57.18634 667.111572 57.866394 671.386841 59.591248 C 676.479004 61.649963 681.971924 65.740051 687.792847 69.092224 C 765.094788 113.58844 847.17627 161.248596 934.037048 212.072754 C 936.016846 213.232727 940.762756 216.089966 948.275024 220.644592 C 953.96521 224.100098 957.7547 228.742859 959.643433 234.572876 C 960.657593 237.700439 961.128296 243.266235 961.055298 251.270325 C 960.663696 296.206787 961.346863 341.106812 961.392395 396.755859 C 961.465332 481.163208 961.222351 574.792236 960.663696 677.643005 C 960.49054 709.543945 960.700073 743.494507 960.69104 767.570557 C 960.69104 776.807495 960.648438 784.094971 960.563538 789.432983 C 960.077698 819.232788 960.111023 849.749146 960.663696 880.982056 C 960.85498 891.740295 957.256836 901.860779 947.2547 906.734253 C 945.463196 907.602722 942.001648 908.264526 936.870056 908.720032 C 815.029358 919.469116 726.392212 927.38208 670.95874 932.459045 C 588.634399 939.995544 542.112915 944.246521 531.394287 945.212158 C 455.331085 952.074524 374.777069 959.295227 289.732086 966.874268 Z M 540.594727 89.761414 L 748.67981 221.209412 C 749.07666 221.458313 749.538757 221.576233 750.000671 221.546448 L 877.03064 212.2276 C 877.337402 212.206421 877.596191 211.993958 877.677795 211.696228 C 877.759277 211.398499 877.646301 211.079163 877.39502 210.897644 C 876.289734 210.114258 875.275574 209.452332 874.352539 208.911743 C 850.832153 195.114136 834.165039 185.288147 824.351257 179.433899 C 818.818787 176.136292 764.029053 144.037964 659.981934 83.138855 C 654.634766 80.014343 647.301758 81.107544 643.175171 81.389893 C 633.531372 82.045715 604.15979 84.198608 555.060425 87.84845 C 552.333618 88.054871 549.96521 88.185364 547.955078 88.240112 C 543.867981 88.355591 541.463135 88.519409 540.740479 88.732056 C 540.527466 88.797241 540.371399 88.979858 540.340149 89.200317 C 540.30896 89.420898 540.408203 89.639709 540.594727 89.761414 Z M 732.210022 222.421021 L 523.96106 90.863586 C 523.481995 90.556274 522.916321 90.412476 522.348694 90.453613 L 399.308594 99.481018 C 399.061188 99.501282 398.851593 99.671387 398.781036 99.909363 C 398.710449 100.147339 398.793365 100.404236 398.989746 100.55603 C 401.904724 102.754395 405.496887 105.162292 409.766113 107.779663 C 412.77829 109.625854 416.394714 111.976074 420.615356 114.830322 C 430.860321 121.753479 443.413025 130.124939 458.273468 139.944824 C 504.609711 170.576599 543.801208 196.529175 575.847961 217.802551 C 577.91571 219.168945 580.16571 221.081848 582.379333 222.430054 C 587.255859 225.399719 592.004883 228.457397 596.626404 231.60321 C 597.251892 232.02832 598.551453 232.177063 600.525146 232.049561 C 643.150879 229.225708 681.054932 226.674988 714.237305 224.397705 C 719.235291 224.057678 725.17157 223.608215 732.046082 223.0495 C 732.194641 223.037048 732.320496 222.931763 732.357727 222.788635 C 732.395081 222.645569 732.33551 222.497192 732.210022 222.421021 Z M 251.108414 110.749329 C 250.916962 110.765991 250.756577 110.901123 250.707565 111.086853 C 250.658569 111.272705 250.731476 111.469299 250.889771 111.578308 L 440.601288 242.6073 C 440.683777 242.6651 440.783112 242.693909 440.883667 242.68927 L 580.174866 233.525269 C 580.373291 233.51709 580.543518 233.381287 580.595642 233.189636 C 580.647644 232.997986 580.56958 232.794678 580.402588 232.687195 L 382.383392 101.211853 C 382.299774 101.157227 382.200562 101.131714 382.100983 101.138977 L 251.108414 110.749329 Z M 423.949402 243.135742 L 235.649826 113.08136 C 234.789856 112.48645 233.753723 112.206482 232.716614 112.288818 C 197.524124 115.021606 159.14032 117.909363 117.565208 120.951843 C 116.472084 121.030823 115.558105 121.258545 114.823288 121.635071 C 114.493965 121.801086 114.276268 122.128235 114.250122 122.496094 C 114.223976 122.864075 114.393234 123.218506 114.695763 123.429565 L 293.776642 249.758179 C 294.264648 250.101563 294.810791 250.354553 295.389008 250.505127 C 298.395111 251.282471 301.671417 251.56488 305.217987 251.352295 C 316.902283 250.653931 356.409546 248.16095 423.739868 243.873474 C 423.91394 243.86084 424.062775 243.740234 424.110107 243.573608 C 424.157471 243.40686 424.092834 243.230896 423.949402 243.135742 Z M 263.633789 912.555176 C 266.065948 914.231201 269.65506 914.258606 270.939484 911.325378 C 271.947601 909.023682 272.457703 906.348633 272.469849 903.299988 C 272.670258 844.262268 272.916229 771.961304 272.524506 699.56012 C 272.123718 624.544495 272.023499 532.977234 272.415192 449.353333 C 272.642944 400.281189 271.103424 333.864929 270.766418 297.527588 C 270.720886 293.218933 269.409119 287.981018 266.831146 284.328186 C 266.236023 283.477966 264.654022 282.135864 262.085175 280.301819 C 247.334091 269.76532 191.305481 229.450378 93.999298 159.356934 C 92.590378 158.336609 91.691582 157.793091 91.302917 157.726318 C 86.47496 156.897339 85.518486 163.200989 85.545807 166.589722 C 85.952682 229.71759 86.119698 285.661133 86.046814 334.420532 C 85.907135 430.931152 85.879814 562.181885 85.964836 728.172607 C 85.964836 732.903381 86.848442 737.114929 88.615662 740.807251 C 89.587326 742.841675 91.321144 745.05835 93.817101 747.457031 C 125.396217 777.773071 161.590729 813.050598 202.400681 853.289612 C 221.931137 872.546814 242.855331 892.678467 258.778473 908.146118 C 261.286591 910.58136 262.905029 912.051086 263.633789 912.555176 Z M 899.649231 859.356445 C 905.679626 857.315979 910.061157 852.86145 911.919495 846.785522 C 912.575378 844.629639 912.900269 840.509216 912.894165 834.424194 C 912.681702 646.352295 912.67865 465.033569 912.88501 290.467896 C 912.903259 281.84137 908.940735 273.378723 900.514587 270.536621 C 898.200745 269.759277 894.383972 269.546753 889.064148 269.898987 C 868.39801 271.271423 856.042725 272.11554 851.998108 272.431335 C 750.720276 280.320068 648.01532 288.00531 543.883179 295.487183 C 421.495911 304.286804 356.209137 308.990295 348.022858 309.597534 C 339.33255 310.244263 332.901337 316.721069 330.41449 324.682678 C 329.880096 326.38916 329.612854 330.184692 329.612854 336.069336 C 329.770752 684.459778 329.870941 867.236023 329.913452 884.398071 C 329.940826 893.807983 334.695862 902.179565 343.75058 904.793945 C 345.803192 905.389099 350.509735 905.386108 357.870087 904.784851 C 480.967896 894.715942 599.094971 884.962891 712.251465 875.525574 C 774.84491 870.30896 835.431213 865.231995 894.010437 860.294678 C 896.548889 860.082153 898.428467 859.769409 899.649231 859.356445 Z"/>
        <path id="path1" fill="#fad5a0" stroke="none" d="M 540.594727 89.761414 C 540.408203 89.639648 540.30896 89.420898 540.340149 89.200317 C 540.371399 88.979797 540.527466 88.797241 540.740479 88.731995 C 541.463135 88.519409 543.868042 88.35553 547.955078 88.240112 C 549.965149 88.185364 552.333679 88.054871 555.060425 87.84845 C 604.15979 84.198608 633.531433 82.045715 643.175232 81.389832 C 647.301758 81.107483 654.634766 80.014343 659.981995 83.138855 C 764.029053 144.037964 818.818848 176.136292 824.351257 179.433899 C 834.1651 185.288147 850.832214 195.114136 874.352539 208.911743 C 875.275635 209.452332 876.289734 210.114258 877.395081 210.897644 C 877.646362 211.079163 877.759338 211.398499 877.677795 211.696228 C 877.596252 211.993958 877.337463 212.206421 877.030701 212.2276 L 750.000671 221.546448 C 749.538757 221.576233 749.076721 221.458313 748.67981 221.209412 L 540.594727 89.761414 Z"/>
        <path id="path2" fill="#fad5a0" stroke="none" d="M 732.210083 222.420959 C 732.33551 222.497192 732.395081 222.645569 732.357788 222.788635 C 732.320496 222.931763 732.194641 223.037048 732.046082 223.0495 C 725.17157 223.608215 719.235291 224.057678 714.237305 224.397644 C 681.054932 226.674988 643.150879 229.225708 600.525208 232.049561 C 598.551514 232.177063 597.251892 232.02832 596.626404 231.60321 C 592.004944 228.457397 587.255859 225.399719 582.379395 222.430054 C 580.165771 221.081848 577.915771 219.168945 575.848022 217.802551 C 543.80127 196.529175 504.609711 170.576538 458.273468 139.944824 C 443.413025 130.124939 430.860352 121.753479 420.615356 114.830261 C 416.394714 111.976074 412.77829 109.625854 409.766113 107.779663 C 405.496887 105.162292 401.904724 102.754395 398.989746 100.55603 C 398.793365 100.404236 398.710449 100.147339 398.781006 99.909363 C 398.851593 99.671387 399.061188 99.501282 399.308594 99.481018 L 522.348694 90.453613 C 522.916321 90.412476 523.481995 90.556274 523.960999 90.863586 L 732.210083 222.420959 Z"/>
        <path id="path3" fill="#fad5a0" stroke="none" d="M 251.108414 110.749329 L 382.100952 101.138977 C 382.200531 101.131653 382.299774 101.157227 382.383362 101.211853 L 580.402649 232.687195 C 580.569641 232.794678 580.647705 232.997986 580.595642 233.189636 C 580.543579 233.381287 580.373352 233.51709 580.174927 233.525269 L 440.883667 242.68927 C 440.783112 242.693909 440.683777 242.6651 440.601288 242.6073 L 250.889755 111.578247 C 250.731476 111.469299 250.658569 111.272705 250.707565 111.086853 C 250.756577 110.901123 250.916962 110.765991 251.108414 110.749329 Z"/>
        <path id="path4" fill="#fad5a0" stroke="none" d="M 423.949402 243.135681 C 424.092865 243.230835 424.157471 243.40686 424.110107 243.573608 C 424.062775 243.740234 423.91394 243.86084 423.739868 243.873474 C 356.409546 248.16095 316.902283 250.653931 305.217987 251.352295 C 301.671417 251.564819 298.395111 251.28241 295.389008 250.505127 C 294.810791 250.354553 294.264648 250.101563 293.776642 249.758179 L 114.695763 123.429565 C 114.393234 123.218506 114.223976 122.864014 114.250122 122.496094 C 114.276268 122.128235 114.493965 121.801086 114.823288 121.635071 C 115.558105 121.258545 116.472084 121.030823 117.565201 120.951843 C 159.140305 117.909363 197.524124 115.021606 232.716614 112.288818 C 233.753738 112.206421 234.789856 112.48645 235.649826 113.081299 L 423.949402 243.135681 Z"/>
        <path id="path5" fill="#fad5a0" stroke="none" d="M 270.939484 911.325378 C 269.65506 914.258606 266.065948 914.231201 263.633789 912.555176 C 262.905029 912.051086 261.286621 910.58136 258.778473 908.146118 C 242.855331 892.678467 221.931137 872.546814 202.400665 853.289612 C 161.590729 813.050537 125.396217 777.773071 93.817101 747.457031 C 91.321152 745.05835 89.587326 742.841675 88.615662 740.807251 C 86.84845 737.114868 85.964836 732.903381 85.964836 728.172607 C 85.879814 562.181885 85.90715 430.931152 86.046822 334.420532 C 86.119698 285.661133 85.952682 229.717529 85.545807 166.589722 C 85.518486 163.200989 86.47496 156.897339 91.302925 157.726318 C 91.691589 157.793091 92.590378 158.336609 93.999298 159.356934 C 191.305481 229.450378 247.334091 269.76532 262.085175 280.301819 C 264.654022 282.135864 266.236023 283.477966 266.831146 284.328186 C 269.409119 287.981018 270.720886 293.218933 270.766418 297.527588 C 271.103424 333.864929 272.642944 400.281189 272.415192 449.353333 C 272.023499 532.977173 272.123718 624.544495 272.524506 699.560059 C 272.916229 771.961304 272.670258 844.262268 272.469849 903.299988 C 272.457703 906.348633 271.947601 909.023682 270.939484 911.325378 Z M 251.609406 847.887756 C 253.540588 843.843201 253.394852 838.550659 253.403961 833.995972 C 253.540588 762.341797 252.329056 688.592407 252.520355 621.237793 C 252.520355 621.025269 252.511261 542.447876 252.493027 385.505798 C 252.483902 368.744629 252.028442 351.236389 251.873596 338.747498 C 251.791611 331.678589 251.135727 324.992371 247.938339 319.116821 C 247.106369 317.580322 245.281464 315.746338 242.463608 313.614807 C 204.908768 285.211792 168.899475 258.205566 134.43573 232.596069 C 126.127998 226.419983 119.611786 221.479614 114.887054 217.775208 C 112.889069 216.208374 110.75444 215.938171 108.483177 216.964417 C 103.545898 219.187134 103.70076 229.553589 103.70076 233.962463 C 103.64003 395.380371 103.712906 551.618042 103.919388 702.675476 C 103.92849 709.297974 105.085388 718.525757 109.20282 723.80011 C 109.420921 724.072693 109.662018 724.319946 109.922455 724.537964 C 113.894135 727.85376 117.984238 731.324463 121.992355 735.15033 C 166.300278 777.405579 191.521072 801.44519 197.654709 807.269165 C 201.198227 810.639648 207.137512 815.786377 211.318741 820.113342 C 214.592026 823.495911 217.743851 826.511108 220.774231 829.158936 C 227.715591 835.20752 237.134659 844.918091 242.627594 849.71875 C 245.31485 852.059875 249.933304 851.403992 251.609406 847.887756 Z"/>
        <path id="path6" fill="#925a26" stroke="none" d="M 253.403961 833.995972 C 253.394836 838.550659 253.540588 843.843201 251.609406 847.887756 C 249.933289 851.403992 245.31485 852.059875 242.627594 849.71875 C 237.134659 844.918091 227.715591 835.20752 220.774231 829.158936 C 217.743851 826.511108 214.592026 823.495911 211.318741 820.113342 C 207.137512 815.786377 201.198227 810.639648 197.654709 807.269165 C 191.521072 801.44519 166.300278 777.40564 121.992355 735.15033 C 117.984238 731.324463 113.894135 727.85376 109.922455 724.537964 C 109.662018 724.319946 109.420921 724.072754 109.20282 723.80011 C 105.085388 718.525757 103.92849 709.297974 103.919388 702.675476 C 103.712906 551.618042 103.64003 395.380371 103.70076 233.962463 C 103.70076 229.553589 103.545898 219.187134 108.483177 216.964417 C 110.75444 215.938171 112.889069 216.208374 114.887047 217.775208 C 119.611771 221.479614 126.127998 226.419983 134.435745 232.596069 C 168.89949 258.205566 204.908783 285.211731 242.463608 313.614746 C 245.281448 315.746338 247.106354 317.580322 247.938339 319.11676 C 251.135727 324.992371 251.791595 331.678589 251.873596 338.747498 C 252.028427 351.236328 252.483902 368.744568 252.493027 385.505798 C 252.511215 542.447876 252.520355 621.025269 252.520355 621.237793 C 252.329056 688.592407 253.540588 762.341797 253.403961 833.995972 Z M 135.537964 731.78894 C 136.120956 723.523804 136.33049 715.641113 136.166504 708.141113 C 135.911453 696.560059 135.65033 688.890015 135.383118 685.130859 C 134.581482 673.935486 133.278854 656.153992 131.666489 642.344238 C 127.585503 607.309631 123.741348 570.535156 122.575348 537.10376 C 121.785873 514.54895 122.083458 491.699707 123.468071 468.555847 C 125.490341 434.681213 129.137131 401.498779 134.408417 369.008728 C 140.101746 333.901245 148.527924 296.388916 150.331558 259.669128 C 150.365479 259.047913 150.08844 258.45282 149.593704 258.084106 L 115.287865 232.331909 C 115.167267 232.239014 115.004562 232.224243 114.867592 232.29364 C 114.730637 232.363098 114.642937 232.504883 114.64109 232.659912 C 114.780777 405.93811 114.808098 563.517822 114.723083 705.39917 C 114.71701 709.461975 115.615807 712.820251 117.419449 715.474121 C 117.534462 715.643616 117.668953 715.7995 117.820267 715.938721 L 134.809219 732.071411 C 134.929184 732.190125 135.107712 732.227295 135.265091 732.166321 C 135.42247 732.105347 135.529343 731.95752 135.537964 731.78894 Z M 202.646622 796.592957 C 202.748978 796.686401 202.896286 796.713684 203.023666 796.66272 C 203.151031 796.611755 203.235077 796.492004 203.238724 796.356079 C 203.97963 776.15155 205.825806 756.013855 208.777222 735.942871 C 210.927017 721.325378 213.265106 705.192688 215.791412 687.544861 C 226.394714 613.364319 228.368393 539.07135 221.712494 464.666138 C 219.738815 442.615417 217.61937 422.085999 215.354172 403.077759 C 212.578873 379.739563 210.389572 360.184814 208.786331 344.413452 C 207.359192 330.330383 206.991806 316.144104 207.684097 301.854553 C 207.695465 301.614319 207.589737 301.385986 207.401703 301.244202 L 161.66362 266.911072 C 161.543472 266.825317 161.386505 266.81073 161.252655 266.872925 C 161.118805 266.935242 161.028748 267.064514 161.016846 267.21167 C 159.607941 284.738037 157.209137 302.607605 153.82045 320.820251 C 150.207062 340.25354 146.982361 358.979309 144.146301 376.997681 C 138.28595 414.194214 134.721161 452.086121 133.451935 490.673401 C 132.862854 508.570251 132.908417 525.246399 133.588562 540.702026 C 135.264679 578.688049 138.999512 612.37439 143.590637 653.685303 C 144.908447 665.545715 145.956039 680.254333 146.733368 697.811035 C 147.043091 704.782776 147.097733 712.115845 146.897324 719.810181 C 146.630127 729.9823 146.353806 737.312256 146.06839 741.800171 C 146.045456 742.222534 146.205093 742.631592 146.50563 742.920654 L 202.646622 796.592957 Z M 242.563812 833.740967 C 242.66098 832.532471 242.688309 829.605286 242.645798 824.959473 C 242.008148 749.746582 241.695389 652.276489 241.707535 532.549133 C 241.713608 497.666321 241.671097 452.271362 241.580032 396.364136 C 241.537521 371.665649 241.233856 351.485413 240.669083 335.823425 C 240.514221 331.551025 239.894791 325.775757 236.615417 323.298035 C 231.307709 319.302002 225.520218 314.996277 219.252991 310.38092 C 219.107285 310.275818 218.915268 310.260254 218.754593 310.340698 C 218.593918 310.420959 218.491119 310.583862 218.487808 310.76355 C 218.311691 325.939697 219.12851 341.492371 220.938217 357.421631 C 226.045532 402.391541 229.039444 429.242859 229.920029 437.975769 C 232.075912 459.255188 233.496979 474.832214 234.183197 484.706726 C 237.744965 536.147278 237.471695 587.961365 232.297577 639.201477 C 230.299606 658.999146 228.623459 673.619629 227.269211 683.062988 C 223.109283 712.055054 220.847122 727.823364 220.482758 730.36792 C 218.114319 746.764771 216.547501 759.326599 215.782318 768.053345 C 214.816727 779.039307 214.075821 791.619263 213.559647 805.793457 C 213.536621 806.384766 213.768753 806.958374 214.197281 807.369385 L 241.999039 833.950439 C 242.092285 834.037354 242.226563 834.064209 242.346054 834.019897 C 242.465546 833.975525 242.54982 833.867615 242.563812 833.740967 Z"/>
        <path id="path7" fill="#fad5a0" stroke="none" d="M 135.537964 731.78894 C 135.529327 731.95752 135.42247 732.105347 135.265076 732.166321 C 135.107712 732.227295 134.929184 732.190125 134.809219 732.071411 L 117.820267 715.938721 C 117.668953 715.7995 117.534462 715.643555 117.419449 715.474121 C 115.615807 712.820251 114.71701 709.461975 114.723083 705.39917 C 114.808098 563.517822 114.780777 405.93811 114.64109 232.659912 C 114.642937 232.504883 114.730637 232.363098 114.867592 232.29364 C 115.004562 232.224304 115.167267 232.239075 115.287865 232.33197 L 149.593704 258.084106 C 150.08844 258.452881 150.365479 259.047913 150.331573 259.669128 C 148.527924 296.388916 140.101761 333.901306 134.408417 369.008728 C 129.137131 401.498779 125.490341 434.681152 123.468071 468.555847 C 122.083443 491.699707 121.785873 514.54895 122.575348 537.10376 C 123.741348 570.535156 127.585503 607.309631 131.666489 642.344238 C 133.278854 656.153992 134.581482 673.935486 135.383102 685.130859 C 135.650314 688.890015 135.911453 696.560059 136.166504 708.141113 C 136.33049 715.641113 136.120956 723.523804 135.537964 731.78894 Z"/>
        <path id="path8" fill="#fad5a0" stroke="none" d="M 202.646622 796.592957 L 146.505646 742.920654 C 146.205093 742.631592 146.045471 742.222534 146.06839 741.800171 C 146.353821 737.312256 146.630127 729.9823 146.897339 719.810181 C 147.097748 712.115845 147.043091 704.782776 146.733383 697.811035 C 145.956055 680.254272 144.908463 665.545715 143.590652 653.685303 C 138.999527 612.37439 135.264679 578.687988 133.588562 540.702026 C 132.908417 525.246399 132.862854 508.570251 133.451935 490.673401 C 134.721161 452.086121 138.285965 414.194214 144.146301 376.997681 C 146.982376 358.979309 150.207062 340.25354 153.82045 320.820313 C 157.209152 302.607666 159.607941 284.738037 161.016846 267.211731 C 161.028748 267.064575 161.118805 266.935303 161.252655 266.872986 C 161.386505 266.810791 161.543472 266.825378 161.66362 266.911133 L 207.401703 301.244263 C 207.589737 301.386047 207.695465 301.61438 207.684097 301.854614 C 206.991776 316.144104 207.359192 330.330444 208.786331 344.413513 C 210.389572 360.184875 212.578873 379.739563 215.354172 403.077759 C 217.61937 422.085999 219.738815 442.615417 221.712494 464.666138 C 228.368408 539.07135 226.394714 613.364319 215.791412 687.544861 C 213.265106 705.192688 210.927017 721.325378 208.777222 735.942871 C 205.82579 756.013855 203.97963 776.15155 203.238708 796.356079 C 203.235077 796.492004 203.151031 796.611755 203.023651 796.66272 C 202.896286 796.713684 202.748962 796.686401 202.646622 796.592957 Z M 192.526123 407.65979 C 190.913742 403.396606 188.618195 399.543335 185.648544 397.275146 C 178.643448 391.927917 171.574585 396.045349 167.87619 402.731628 C 166.449066 405.306519 164.939941 408.883484 163.348831 413.462463 C 161.448013 418.952393 159.862991 425.101196 158.59375 431.908875 C 153.656479 458.344238 150.908493 485.441589 150.349792 513.200806 C 149.73642 543.717163 150.680756 571.039185 153.1828 595.16687 C 155.041107 613.121399 156.808334 628.233765 160.543152 643.328003 C 162.911591 652.892822 168.295227 680.885925 182.760895 676.276611 C 188.882385 674.318054 193.045334 664.744141 194.803467 658.741089 C 200.296402 639.975708 203.156723 620.281372 204.896622 600.805542 C 208.036316 565.655518 208.543396 529.54303 206.417892 492.467896 C 205.124359 469.967773 202.737717 448.114441 198.301468 426.516113 C 197.035233 420.340027 194.329758 412.414856 192.526123 407.65979 Z"/>
        <path id="path9" fill="#fad5a0" stroke="none" d="M 911.919495 846.785522 C 910.061218 852.86145 905.679688 857.315979 899.649292 859.356445 C 898.428528 859.769409 896.54895 860.082153 894.010498 860.294678 C 835.431274 865.231995 774.84491 870.30896 712.251526 875.525574 C 599.095032 884.962891 480.967896 894.715942 357.870087 904.784851 C 350.509735 905.386108 345.803223 905.389099 343.75058 904.793945 C 334.695862 902.179565 329.940826 893.807983 329.913452 884.398071 C 329.870941 867.236023 329.770752 684.459778 329.612854 336.069336 C 329.612854 330.184692 329.880096 326.389099 330.41449 324.682617 C 332.901337 316.721008 339.33255 310.244263 348.022858 309.597534 C 356.209137 308.990295 421.495911 304.286804 543.883179 295.487122 C 648.01532 288.005249 750.720337 280.320068 851.998169 272.431335 C 856.042725 272.11554 868.398071 271.271423 889.064209 269.898987 C 894.384033 269.546692 898.200806 269.759277 900.514648 270.53656 C 908.940796 273.378723 912.903259 281.841309 912.885071 290.467896 C 912.678589 465.033569 912.681702 646.352295 912.894226 834.424133 C 912.90033 840.509155 912.575378 844.629639 911.919495 846.785522 Z M 791.448303 454.244995 C 794.654724 451.958618 794.144653 447.221741 792.37738 444.115417 C 769.39447 403.815613 732.547119 373.545227 687.528687 360.263794 C 636.698425 345.269775 580.83075 352.065369 533.963074 376.396423 C 484.517517 402.06665 447.815857 445.828003 428.194366 498.215881 C 417.372406 527.11084 411.64267 557.271973 411.005005 588.699219 C 410.330902 622.376465 415.013153 656.062927 426.436218 687.708862 C 446.567902 743.512756 488.644043 789.642517 544.548157 809.865295 C 584.028137 824.148743 629.502075 825.041504 670.047791 813.536377 C 721.051147 799.061646 765.741638 766.267944 793.406738 720.784912 C 796.139526 716.294006 795.465515 713.315186 791.211426 709.844604 C 771.389465 693.642029 752.687927 678.529663 735.106812 664.507202 C 734.828674 664.289673 734.519226 664.108887 734.186829 663.969849 C 732.334534 663.210693 730.406433 663.292725 728.402405 664.215759 C 727.369995 664.689453 726.040039 666.289673 724.412476 669.016418 C 715.934753 683.196655 705.689697 695.369751 693.67749 705.535889 C 674.730042 721.562256 652.885803 730.453003 628.144775 732.208008 C 595.751892 734.50354 565.909668 722.579468 544.602783 698.348511 C 537.29718 690.046875 531.336609 681.043762 526.72113 671.339233 C 520.223145 657.675293 515.695801 643.977783 513.13916 630.246948 C 507.892151 602.044434 508.259521 573.489624 514.241394 544.582581 C 519.870972 517.427551 532.833557 490.800903 553.174744 471.279602 C 560.972412 463.797729 570.175842 457.424255 580.785217 452.159058 C 595.797424 444.701538 611.808655 440.945435 628.818848 440.890747 C 646.727844 440.83606 665.065063 445.327026 680.141052 454.591187 C 693.507507 462.813904 704.623901 473.487061 713.490356 486.610596 C 716.25354 490.703796 718.087585 493.612671 718.992432 495.337402 C 720.878052 498.926453 722.736389 500.529663 726.598755 500.311096 C 727.770813 500.244263 729.850769 499.1026 732.838684 496.885986 C 751.257751 483.221924 770.79425 469.008301 791.448303 454.244995 Z"/>
        <path id="path10" fill="#fad5a0" stroke="none" d="M 242.563828 833.740967 C 242.54982 833.867615 242.465546 833.975525 242.346054 834.019897 C 242.226563 834.064209 242.092285 834.037354 241.999054 833.950439 L 214.197266 807.369385 C 213.768738 806.958435 213.536606 806.384766 213.559647 805.793457 C 214.075821 791.619263 214.816727 779.039307 215.782318 768.053345 C 216.547501 759.326599 218.114319 746.764771 220.482742 730.36792 C 220.847122 727.823364 223.109283 712.055054 227.269211 683.062988 C 228.623459 673.619629 230.299591 658.999146 232.297592 639.201477 C 237.471695 587.961304 237.744965 536.147278 234.183212 484.706726 C 233.496979 474.832214 232.075928 459.255127 229.920044 437.975708 C 229.039459 429.242859 226.045532 402.391541 220.938217 357.421631 C 219.128494 341.492371 218.311691 325.939758 218.487808 310.76355 C 218.491119 310.583862 218.593918 310.420959 218.754593 310.340698 C 218.915268 310.260254 219.107285 310.275818 219.252991 310.38092 C 225.520233 314.996277 231.307709 319.302002 236.615417 323.298035 C 239.894791 325.775757 240.514221 331.551086 240.669098 335.823425 C 241.233871 351.485413 241.537506 371.665649 241.580032 396.364136 C 241.671097 452.271362 241.713608 497.666321 241.707535 532.549072 C 241.695389 652.276489 242.008148 749.746582 242.645813 824.959473 C 242.688309 829.605286 242.66098 832.532471 242.563828 833.740967 Z"/>
        <path id="path11" fill="#d91f24" stroke="none" d="M 792.37738 444.115417 C 794.144592 447.221741 794.654724 451.958618 791.448303 454.244995 C 770.79425 469.008301 751.257751 483.221924 732.838623 496.885986 C 729.850769 499.1026 727.770752 500.244263 726.598755 500.311096 C 722.736389 500.529663 720.877991 498.926453 718.992371 495.337402 C 718.087524 493.612671 716.25354 490.703796 713.490356 486.610596 C 704.623901 473.487061 693.507507 462.813904 680.140991 454.591187 C 665.065063 445.327026 646.727844 440.83606 628.818848 440.890747 C 611.808655 440.945435 595.797424 444.701538 580.785217 452.159058 C 570.175842 457.424255 560.972412 463.797729 553.174744 471.279541 C 532.833557 490.800903 519.870911 517.427551 514.241394 544.582581 C 508.259521 573.489624 507.892151 602.044373 513.139099 630.246948 C 515.695801 643.977783 520.223145 657.675232 526.72113 671.339233 C 531.336609 681.043762 537.297119 690.046875 544.602783 698.348511 C 565.909668 722.579468 595.751892 734.50354 628.144775 732.208008 C 652.885742 730.453003 674.72998 721.562256 693.67749 705.535889 C 705.689697 695.369751 715.934692 683.196594 724.412415 669.016418 C 726.040039 666.289673 727.369995 664.689453 728.402405 664.215759 C 730.406433 663.292725 732.334534 663.210693 734.186829 663.969849 C 734.519226 664.108826 734.828674 664.289612 735.106812 664.507202 C 752.687927 678.529663 771.389465 693.642029 791.211426 709.844604 C 795.465454 713.315186 796.139526 716.294006 793.406738 720.784912 C 765.741638 766.267944 721.051147 799.061646 670.047791 813.536377 C 629.502075 825.041504 584.028137 824.148743 544.548157 809.865295 C 488.644043 789.642517 446.567902 743.512817 426.436218 687.708862 C 415.013153 656.062927 410.330902 622.376465 411.005005 588.699219 C 411.64267 557.271912 417.372406 527.11084 428.194366 498.215881 C 447.815857 445.828003 484.517517 402.06665 533.963074 376.396484 C 580.83075 352.065369 636.698425 345.269836 687.528687 360.263794 C 732.547119 373.545227 769.39447 403.815613 792.37738 444.115417 Z"/>
        <path id="path12" fill="#925a26" stroke="none" d="M 185.648544 397.275146 C 188.618195 399.543335 190.913742 403.396606 192.526123 407.65979 C 194.329758 412.414856 197.035233 420.340027 198.301468 426.516113 C 202.737717 448.114441 205.124359 469.967773 206.417892 492.467896 C 208.543396 529.54303 208.036331 565.655518 204.896637 600.805542 C 203.156723 620.281372 200.296402 639.975708 194.803467 658.741089 C 193.045334 664.744141 188.882385 674.318054 182.760895 676.276611 C 168.295227 680.885925 162.911591 652.892822 160.543152 643.328003 C 156.808334 628.233765 155.041092 613.121399 153.182816 595.16687 C 150.680756 571.039185 149.736435 543.717163 150.349792 513.200806 C 150.908493 485.441589 153.656494 458.344238 158.59375 431.908875 C 159.862991 425.101196 161.448029 418.952332 163.348831 413.462463 C 164.939941 408.883484 166.449066 405.306519 167.87619 402.731628 C 171.574585 396.045349 178.643448 391.927917 185.648544 397.275146 Z M 179.527054 664.334229 C 179.650955 664.457336 179.82048 664.523315 179.995026 664.516418 C 180.169556 664.509521 180.333359 664.430298 180.447113 664.297729 C 181.777069 662.755249 182.742661 661.039673 183.343872 659.15094 C 189.337845 640.285522 192.052429 620.527283 193.874298 600.869263 C 198.000824 556.324463 197.72757 511.852661 193.409729 467.553833 C 192.134445 454.503174 189.993729 441.10022 186.987625 427.345093 C 185.57872 420.926025 184.030136 415.682068 182.341843 411.61322 C 181.740631 410.155762 181.066544 408.87738 180.319595 407.778259 C 180.06398 407.402771 179.646149 407.169983 179.192383 407.150269 C 178.738617 407.130493 178.302139 407.326172 178.014893 407.67804 C 176.539185 409.505981 175.367126 411.655762 174.498703 414.127441 C 169.78006 427.609314 167.393387 441.482849 165.416656 456.941406 C 160.060349 498.862732 159.832626 544.209106 163.476364 587.606079 C 164.885284 604.482666 167.168701 621.177124 170.326614 637.689331 C 171.683914 644.776367 173.861053 651.143799 175.528061 657.44751 C 176.238586 660.156006 177.571579 662.451599 179.527054 664.334229 Z"/>
        <path id="path13" fill="#fad5a0" stroke="none" d="M 179.527054 664.334229 C 177.571579 662.451599 176.238586 660.156006 175.528061 657.44751 C 173.861053 651.143799 171.683914 644.776367 170.326614 637.689331 C 167.168701 621.177124 164.885284 604.482666 163.476364 587.606079 C 159.832626 544.209106 160.060349 498.862732 165.416656 456.941406 C 167.393387 441.482849 169.78006 427.609314 174.498703 414.127441 C 175.367126 411.655823 176.539185 409.505981 178.014893 407.67804 C 178.302155 407.326172 178.738617 407.130554 179.192383 407.15033 C 179.646149 407.169983 180.06398 407.402771 180.319595 407.778259 C 181.066544 408.877441 181.740662 410.155762 182.341843 411.613281 C 184.030106 415.682068 185.57872 420.926025 186.987625 427.345093 C 189.993713 441.10022 192.134415 454.503113 193.409729 467.553833 C 197.72757 511.852661 198.000824 556.324524 193.874298 600.869263 C 192.052429 620.527283 189.337845 640.285522 183.343872 659.15094 C 182.742661 661.039673 181.777069 662.755249 180.447098 664.297729 C 180.333359 664.430298 180.169556 664.509521 179.995026 664.516418 C 179.82048 664.523315 179.650955 664.457336 179.527054 664.334229 Z"/>
    </g>
</svg>
